<?xml version="1.0" encoding="iso-8859-1"?>
<!-- Generator: Adobe Illustrator 19.0.0, SVG Export Plug-In . SVG Version: 6.00 Build 0)  -->
<svg version="1.1" id="Capa_1" xmlns="http://www.w3.org/2000/svg" xmlns:xlink="http://www.w3.org/1999/xlink" x="0px" y="0px"
	 viewBox="0 0 511.997 511.997" style="enable-background:new 0 0 511.997 511.997;" xml:space="preserve">
<path style="fill:#ECF0F0;" d="M256,67.631c-61.977,0-112.219,50.242-112.219,112.219v264.517l24.047-32.063l24.047,32.063
	l32.063-32.063L256,444.366l32.063-32.063l32.063,32.063l24.047-32.063l24.047,32.063V179.85
	C368.219,117.873,317.977,67.631,256,67.631z"/>
<g>
	<path style="fill:#D8E0E0;" d="M175.843,179.85c0-56.533,41.807-103.295,96.188-111.074c-5.236-0.749-10.588-1.145-16.031-1.145
		c-61.977,0-112.219,50.242-112.219,112.219v264.517l24.047-32.063l8.016,10.688V179.85z"/>
	<path style="fill:#D8E0E0;" d="M368.219,179.85c0,0,40.078-56.11,80.157-56.11c48.757,0,56.11,40.078,56.11,80.157
		c-104.204-40.078-64.692,83.226-136.266,112.219V179.85z"/>
</g>
<path style="fill:#ECF0F0;" d="M143.781,179.85c0,0-40.078-56.11-80.157-56.11c-48.757,0-56.11,40.078-56.11,80.157
	c104.204-40.078,64.692,83.226,136.266,112.219V179.85z"/>
<g>
	<path style="fill:#507575;" d="M317.375,199.202c12.521-12.521,12.521-32.822,0-45.344l-45.344,45.344
		C284.553,211.723,304.853,211.723,317.375,199.202z"/>
	<path style="fill:#507575;" d="M194.625,199.202c-12.521-12.521-12.521-32.822,0-45.344l45.344,45.344
		C227.447,211.723,207.147,211.723,194.625,199.202z"/>
</g>
<ellipse style="fill:#F47F37;" cx="256" cy="268.022" rx="64.125" ry="40.078"/>
<path style="fill:#F37121;" d="M256,268.022c-23.731,0-44.436,8.063-55.525,20.039C211.563,300.038,232.269,308.1,256,308.1
	s44.436-8.063,55.525-20.039C300.436,276.086,279.731,268.022,256,268.022z"/>
<g>
	<polygon style="fill:#ED3124;" points="256,260.006 272.031,227.944 239.969,227.944 	"/>
	<polygon style="fill:#ED3124;" points="288.063,268.022 320.125,251.991 288.063,235.959 	"/>
	<polygon style="fill:#ED3124;" points="223.937,268.022 191.875,251.991 223.937,235.959 	"/>
</g>
<path d="M501.36,145.281c-10.176-19.28-28.003-29.056-52.984-29.056c-29.836,0-58.564,26.805-74.195,44.383
	C364.948,103.703,315.472,60.116,256,60.116s-108.948,43.587-118.181,100.492c-15.631-17.577-44.359-44.383-74.195-44.383
	c-24.982,0-42.809,9.776-52.984,29.056C3.281,159.222,0,177.3,0,203.897c0,5.179,5.369,8.876,10.212,7.014
	c20.93-8.05,36.44-9.55,47.416-4.586c14.617,6.611,21.303,24.692,29.045,45.629c9.524,25.755,20.27,54.767,49.593,69.022v27.203
	c0,4.151,3.365,7.515,7.515,7.515s7.515-3.364,7.515-7.515v-32.143c0-0.016,0-0.031,0-0.047V179.85
	C151.296,122.116,198.265,75.145,256,75.145s104.704,46.971,104.704,104.704v136.139c0,0.015,0,0.031,0,0.047v105.787
	l-10.521-14.027c-2.957-3.943-9.067-3.943-12.023,0l-18.849,25.131l-25.936-25.937c-2.893-2.893-7.734-2.893-10.627,0L256,433.74
	l-26.749-26.749c-2.893-2.893-7.734-2.893-10.627,0l-25.936,25.937l-18.849-25.132c-2.957-3.943-9.067-3.943-12.023,0
	l-10.521,14.027v-41.581c0-4.151-3.365-7.515-7.515-7.515s-7.515,3.364-7.515,7.515v64.125c0,3.096,1.973,5.946,4.87,7.034
	c3.089,1.16,6.675,0.115,8.656-2.525l18.035-24.047l18.035,24.047c2.702,3.602,8.139,3.993,11.325,0.806l26.748-26.749
	l26.749,26.749c2.935,2.934,7.693,2.934,10.627,0l26.749-26.749l26.748,26.749c3.187,3.187,8.623,2.797,11.325-0.806l18.035-24.047
	l18.035,24.047c2.044,2.724,5.776,3.738,8.918,2.421c2.762-1.158,4.608-3.935,4.608-6.93V320.975
	c29.323-14.256,40.069-43.267,49.593-69.022c7.742-20.937,14.428-39.018,29.045-45.629c10.976-4.965,26.486-3.464,47.416,4.586
	c4.842,1.864,10.212-1.835,10.212-7.014C512,177.3,508.719,159.222,501.36,145.281z M100.77,246.741
	c-8.54-23.096-16.607-44.912-36.948-54.111c-12.688-5.739-28.647-5.547-48.572,0.618c1.908-43.861,16.338-61.994,48.374-61.994
	c31.841,0,65.455,41.673,72.642,51.091v121.341C117.123,290.927,108.823,268.52,100.77,246.741z M448.178,192.631
	c-20.341,9.199-28.408,31.015-36.948,54.111c-8.054,21.779-16.353,44.185-35.496,56.944V182.345
	c7.192-9.422,40.804-51.09,72.642-51.09c32.037,0,46.467,18.133,48.374,61.994C476.826,187.082,460.866,186.894,448.178,192.631z"/>
<path d="M322.688,204.515c7.475-7.476,11.592-17.414,11.592-27.986s-4.117-20.511-11.592-27.986
	c-2.893-2.895-7.734-2.894-10.627-0.001l-45.344,45.344c-2.935,2.936-2.935,7.693,0,10.627c7.475,7.476,17.414,11.593,27.986,11.593
	S315.214,211.99,322.688,204.515z M316.55,165.31c1.765,3.429,2.7,7.252,2.7,11.22c0,6.557-2.553,12.721-7.19,17.357
	c0,0,0,0,0,0.001c-4.636,4.636-10.801,7.19-17.358,7.19c-3.968,0-7.791-0.936-11.22-2.7L316.55,165.31z"/>
<path d="M199.939,148.544c-2.893-2.893-7.735-2.894-10.627,0.001c-7.475,7.475-11.592,17.414-11.592,27.986
	s4.117,20.51,11.592,27.985c7.475,7.476,17.414,11.593,27.986,11.593s20.51-4.117,27.986-11.593c2.935-2.935,2.935-7.692,0-10.627
	L199.939,148.544z M217.297,201.078c-6.557,0-12.722-2.554-17.358-7.19c0-0.001,0-0.001,0-0.001c-4.636-4.636-7.19-10.8-7.19-17.357
	c0-3.968,0.935-7.791,2.7-11.22l33.068,33.068C225.089,200.142,221.265,201.078,217.297,201.078z"/>
<path d="M184.36,268.022c0,26.688,31.468,47.593,71.64,47.593s71.64-20.905,71.64-47.593s-31.468-47.593-71.64-47.593
	S184.36,241.335,184.36,268.022z M259.828,235.546L256,243.204l-3.828-7.658c1.268-0.051,2.542-0.087,3.828-0.087
	S258.561,235.494,259.828,235.546z M216.423,244.992v10.872l-8.856-4.428C210.049,249.086,213.032,246.921,216.423,244.992z
	 M256,300.586c-30.686,0-56.611-14.912-56.611-32.564c0-1.241,0.141-2.467,0.391-3.677l20.797,10.398
	c4.918,2.459,10.875-1.245,10.875-6.721v-29.219c1.603-0.458,3.246-0.872,4.925-1.241l12.902,25.805
	c2.715,5.43,10.727,5.431,13.442,0l12.902-25.805c1.678,0.37,3.321,0.784,4.925,1.241v29.219c0,5.476,5.958,9.18,10.875,6.721
	l20.797-10.398c0.249,1.21,0.391,2.436,0.391,3.677C312.611,285.673,286.686,300.586,256,300.586z M295.577,244.992
	c3.391,1.929,6.372,4.094,8.856,6.444l-8.856,4.428V244.992z"/>
<g>
</g>
<g>
</g>
<g>
</g>
<g>
</g>
<g>
</g>
<g>
</g>
<g>
</g>
<g>
</g>
<g>
</g>
<g>
</g>
<g>
</g>
<g>
</g>
<g>
</g>
<g>
</g>
<g>
</g>
</svg>
